# xmcd CD database file
# Copyright (C) 1995 Ti Kan
#
# Track frame offsets:
#	150
#	20893
#	40020
#	58473
#	88763
#	132235
#	154285
#	177020
#	200680
#
# Disc length: 2910 seconds
#
# Revision: 1
# Processed by: cddbd v1.4b41PL1 Copyright (c) Steve Scherf et al.
# Submitted via: NotifyCDPlayer(CDDB) 1.05
#
DISCID=800b5c09
DTITLE=Chris Duarte Group - Texas Sugar - Strat Magik
DYEAR=1900
DGENRE=
TTITLE0=My Way Down
TTITLE1=Letter To My Girlfriend
TTITLE2=C-Butt Rock
TTITLE3=Just Kissed My Baby
TTITLE4=Shiloh
TTITLE5=Scrawl
TTITLE6=What Can I Do?
TTITLE7=Big-Legged Woman
TTITLE8=Borrowed Love
EXTD=
EXTT0=
EXTT1=
EXTT2=
EXTT3=
EXTT4=
EXTT5=
EXTT6=
EXTT7=
EXTT8=
PLAYORDER=
